<?xml version="1.0" encoding="UTF-8" standalone="no"?>
<!DOCTYPE svg PUBLIC "-//W3C//DTD SVG 1.1//EN" "http://www.w3.org/Graphics/SVG/1.1/DTD/svg11.dtd">
<svg width="100%" height="100%" viewBox="0 0 940 215" version="1.1" xmlns="http://www.w3.org/2000/svg" xmlns:xlink="http://www.w3.org/1999/xlink" xml:space="preserve" xmlns:serif="http://www.serif.com/" style="fill-rule:evenodd;clip-rule:evenodd;stroke-linejoin:round;stroke-miterlimit:2;">
    <g transform="matrix(1.07491,0,0,1.07491,-145.336,-288.988)">
        <g>
            <path d="M229.783,463.719C254.192,472.205 280.235,470.198 302.714,457.414C336.702,438.086 357.167,399.251 355.263,360.41C353.357,321.529 326.742,286.627 289.85,274.156C260.47,264.227 230.503,269.142 202.528,281.328C192.699,285.609 183.335,290.2 174.579,296.344L193.15,295.111C203.363,294.432 211.72,293.878 211.656,294.52C211.621,294.873 205.521,297.716 198.102,300.837C174.807,310.637 154.599,326.949 143.966,350.234C138.167,362.933 136.983,375.985 135.207,389.674L139.763,381.128C143.822,373.513 149.215,367.85 155.336,361.936L151.43,374.414C144.544,396.414 148.609,419.766 162.454,438.227L161.38,423.741C159.186,394.135 168.63,366.978 190.175,346.392C208.322,329.053 234.254,317.891 259.064,326.895C277.268,333.502 291.74,349.369 294.043,368.872C296.401,388.851 284.397,410.475 265.597,418.122C248.738,424.979 226.94,419.153 219.729,401.469C214.228,387.983 219.668,368.3 236.078,366.529C244.146,365.658 250.502,368.215 252.135,376.654C253.74,384.953 248.754,389.795 241.051,392.14C234.709,394.07 234.709,394.07 240.135,398.896C247.993,405.887 258.648,403.924 266.142,397.164C278.79,385.757 277.371,364.254 264.879,353.352C248.701,339.234 225.103,343.467 208.766,354.974C189.728,368.383 179.422,391.698 184.108,414.738C188.923,438.404 207.407,455.939 229.783,463.719ZM672.218,438.651C686.967,438.651 699.547,431.06 699.764,420.215C699.764,417.395 699.113,415.66 696.727,414.142C694.775,412.84 694.992,414.142 694.558,414.142C691.738,424.987 680.243,424.77 676.339,423.468C670.482,421.516 662.457,418.263 662.457,396.356L662.457,341.944L694.24,341.944C696.344,341.944 701.092,352.268 703.296,351.281C704.511,350.736 704.188,339.964 704.021,335.127C703.777,328.06 696.638,325.498 693.058,326.379C689.327,327.297 676.004,327.41 671.133,327.41L662.457,327.41L662.457,300.298C662.457,299.647 658.341,300.081 657.474,300.081C651.842,300.732 648.159,308.323 646.209,312.878C642.959,320.903 635.155,326.976 625.395,328.059C625.395,333.47 629.95,337.149 634.288,338.015C634.288,338.015 638.843,338.664 638.843,342.566L638.843,397.875C638.843,424.553 656.391,438.651 672.218,438.651ZM798.144,343.231C788.178,331.093 769.741,324.374 755.2,324.374C738.056,324.374 725.048,331.96 719.198,338.679C712.915,346.482 713.781,364.256 730.899,364.906C734.367,365.123 733.499,364.906 733.499,362.522C733.499,353.852 736.103,341.28 746.303,336.512C759.975,330.226 784.062,340.63 779.289,357.537C775.817,369.246 751.511,375.322 739.792,377.926C721.582,382.048 707.281,388.341 707.281,406.785C707.281,425.012 728.298,438.434 752.813,438.217C765.617,438.217 779.506,434.54 789.045,428.267L789.045,428.05C793.378,432.804 799.661,435.832 806.81,435.832L814.618,435.832C815.269,435.832 815.703,435.183 815.703,434.75C815.703,434.102 815.486,433.885 815.052,433.885C810.28,429.993 806.81,421.776 806.81,411.829L806.81,373.556C806.81,363.389 804.427,350.817 798.144,343.231ZM992.138,343.231C982.172,331.093 963.735,324.374 949.194,324.374C932.05,324.374 919.042,331.96 913.192,338.679C906.909,346.482 907.775,364.256 924.893,364.906C928.361,365.123 927.493,364.906 927.493,362.522C927.493,353.852 930.097,341.28 940.297,336.512C953.969,330.226 978.056,340.63 973.283,357.537C969.811,369.246 945.505,375.322 933.786,377.926C915.576,382.048 901.275,388.341 901.275,406.785C901.275,425.012 922.292,438.434 946.807,438.217C959.611,438.217 973.5,434.54 983.039,428.267L983.039,428.05C987.372,432.804 993.655,435.832 1000.8,435.832L1008.61,435.832C1009.26,435.832 1009.7,435.183 1009.7,434.75C1009.7,434.102 1009.48,433.885 1009.05,433.885C1004.27,429.993 1000.8,421.776 1000.8,411.829L1000.8,373.556C1000.8,363.389 998.421,350.817 992.138,343.231ZM609.124,343.231C599.158,331.093 580.721,324.374 566.181,324.374C549.036,324.374 536.029,331.96 530.178,338.679C523.895,346.482 524.762,364.256 541.879,364.906C545.347,365.123 544.479,364.906 544.479,362.522C544.479,353.852 547.083,341.28 557.283,336.512C570.955,330.226 595.042,340.63 590.269,357.537C586.797,369.246 562.491,375.322 550.773,377.926C532.562,382.048 518.261,388.341 518.261,406.785C518.261,425.012 539.279,438.434 563.793,438.217C576.597,438.217 590.487,434.54 600.025,428.267L600.025,428.05C604.358,432.804 610.641,435.832 617.79,435.832L625.598,435.832C626.249,435.832 626.683,435.183 626.683,434.75C626.683,434.102 626.466,433.885 626.032,433.885C621.261,429.993 617.79,421.776 617.79,411.829L617.79,373.556C617.79,363.389 615.407,350.817 609.124,343.231ZM474.739,423.703C481.463,434.749 498.164,436.482 506.406,436.916C514.865,437.35 518.118,435.832 518.769,434.965C520.287,432.799 516.166,431.717 515.949,431.717C506.406,428.035 505.972,425.003 500.767,417.639L481.896,384.502C477.125,378.221 472.353,374.756 467.798,372.807C474.305,369.991 479.077,366.093 483.415,357.43C491.657,340.753 497.079,331.657 504.237,328.625C504.454,328.625 507.057,328.192 506.406,326.892C505.972,325.809 499.682,325.159 490.139,325.809C480.378,326.459 474.088,328.841 470.835,336.638C460.857,358.729 460.207,360.029 452.398,363.927C449.362,365.443 445.458,365.443 442.204,365.66L442.204,292.889C442.421,282.71 445.675,274.696 450.663,270.798C450.88,270.798 451.314,270.365 451.314,269.932C451.314,269.498 450.88,268.848 450.229,268.848L442.421,268.848C429.422,268.848 418.806,279.461 418.59,292.889L418.59,411.791C418.59,421.754 415.119,429.984 410.347,433.882C409.914,433.882 409.697,434.099 409.697,434.749C409.697,435.182 410.131,435.832 410.781,435.832L418.59,435.832C431.589,435.832 442.204,425.219 442.204,411.791L442.204,376.272C449.145,376.272 455.218,375.406 461.725,389.7L474.739,423.703ZM827.862,327.409L820.054,327.409C819.403,327.409 818.97,328.06 818.97,328.494C818.97,329.144 819.187,329.361 819.62,329.361C824.392,333.264 827.862,341.504 827.862,351.479L827.862,411.762C828.079,425.206 838.695,435.832 851.694,435.832L859.502,435.832C860.153,435.832 860.587,435.181 860.587,434.747C860.587,434.314 860.153,433.88 859.936,433.88C854.947,429.977 851.694,421.954 851.477,411.762L851.477,369.26C851.911,357.117 854.297,344.106 863.19,340.854C876.854,336.083 885.096,347.359 884.012,357.984C897.242,357.984 903.316,340.637 895.941,332.614C889,325.024 881.192,325.241 877.071,325.241C863.19,325.241 854.947,330.662 847.577,338.468C843.461,331.746 836.095,327.409 827.862,327.409ZM783.195,411.829C777.553,421.975 766.268,428.267 755.417,428.267C743.265,428.267 733.282,418.937 733.282,406.785C733.282,394.851 742.179,388.124 752.162,384.869C756.286,383.35 770.826,381.397 783.195,376.407L783.195,411.829ZM977.189,411.829C971.547,421.975 960.262,428.267 949.412,428.267C937.259,428.267 927.276,418.937 927.276,406.785C927.276,394.851 936.174,388.124 946.156,384.869C950.28,383.35 964.82,381.397 977.189,376.407L977.189,411.829ZM594.175,411.829C588.533,421.975 577.249,428.267 566.398,428.267C554.245,428.267 544.262,418.937 544.262,406.785C544.262,394.851 553.16,388.124 563.142,384.869C567.266,383.35 581.806,381.397 594.175,376.407L594.175,411.829Z" style="fill:white;fill-rule:nonzero;"/>
        </g>
    </g>
</svg>
